<?xml version="1.0" encoding="utf-8" ?>
<svg xmlns="http://www.w3.org/2000/svg" xmlns:xlink="http://www.w3.org/1999/xlink" width="1024" height="1024">
	<path fill="#F0F2F5" d="M0 0L1024 0L1024 1024L0 1024L0 0Z" />
	<defs>
		<linearGradient id="gradient_0" gradientUnits="userSpaceOnUse" x1="271.14972" y1="129.21329" x2="739.12793"
			y2="828.4812">
			<stop offset="0" stop-color="#024070" />
			<stop offset="1" stop-color="#0A5783" />
		</linearGradient>
	</defs>
	<path fill="url(#gradient_0)"
		d="M510.904 77.6589C512.964 77.9096 514.833 78.228 516.699 79.1782C523.744 82.7661 530.524 87.1067 537.399 91.0228L577.692 113.903L691.15 178.968L856.442 274.018C870.043 281.852 883.932 289.184 897.454 297.151C898.498 298.831 897.794 302.952 897.741 305.1C896.917 338.673 897.718 372.388 897.673 405.98L897.675 631.479L897.735 700.255C897.724 705.229 898.463 718.967 897.371 723.15C897.287 723.475 897.08 723.915 896.957 724.203C890.736 729.438 882.03 733.137 874.992 737.257L824.197 766.965L580.287 908.282C564.767 917.373 549.187 926.361 533.548 935.247C527.123 938.933 520.09 944.682 512.955 946.446C512.313 946.441 511.682 946.392 511.05 946.27C505.959 945.288 472.698 924.812 465.308 920.523C443.083 907.889 420.932 895.126 398.856 882.234L228.541 784.417C196.663 766.204 164.94 747.722 133.375 728.973C131.108 727.6 128.864 726.406 127.389 724.127C128.107 712.164 127.327 699.682 127.325 687.672L127.314 610.798L127.379 367.668C117.801 361.784 107.844 355.676 99.5385 348.054C71.8289 322.627 69.9615 297.225 68.368 261.822C82.891 274.829 105.964 295.557 124.944 300.059C128.766 297.593 133.043 295.527 136.981 293.218C149.948 285.615 162.974 278.291 176.144 271.047C191.483 262.61 206.61 253.641 221.853 245.009C227.24 241.959 232.225 238.234 237.607 235.167L378.522 153.929L478.092 96.28C487.504 90.9467 501.295 81.3603 510.904 77.6589Z" />
	<defs>
		<linearGradient id="gradient_1" gradientUnits="userSpaceOnUse" x1="586.26666" y1="423.90356" x2="265.31741"
			y2="142.38135">
			<stop offset="0" stop-color="#238EB6" />
			<stop offset="1" stop-color="#47ADC7" />
		</linearGradient>
	</defs>
	<path fill="url(#gradient_1)"
		d="M510.904 77.6589C512.964 77.9096 514.833 78.228 516.699 79.1782C523.744 82.7661 530.524 87.1067 537.399 91.0228L577.692 113.903L691.15 178.968L856.442 274.018C870.043 281.852 883.932 289.184 897.454 297.151C888.033 301.443 879.319 308.308 870.466 313.724L800.466 355.859C786.702 364.309 773.187 373.968 759.016 381.633C757.004 382.721 755.323 383.274 753.053 383.409C750.631 385.212 748.297 386.384 745.484 387.455L745.56 419.198C745.568 423.995 746.129 429.61 745.337 434.286L743.456 434.444C720.586 434.365 698.469 436.353 675.917 440.154C671.104 441.226 666.09 442.623 661.204 443.171L659.567 444.081C652.961 443.922 637.664 450.037 630.309 451.879L628.077 452.845C620.035 454.854 608.927 457.338 601.48 460.507L598.974 461.268C591.51 462.857 580.899 465.35 574.067 468.532L571.87 469.329C561.859 472.046 551.097 475.373 541.549 479.372L538.958 480.342C529.048 483.102 519.441 486.662 509.244 488.316L506.734 489.053C496.799 490.936 487.005 491.913 476.915 492.505L474.276 492.424C464.46 491.968 454.75 491.383 444.988 490.212L442.443 489.92C438.313 488.81 433.717 488.396 429.485 487.656C423.506 486.611 417.662 485.261 411.784 483.754L410.532 483.338C400.597 479.412 389.913 477.662 379.918 473.6L377.78 472.729C368.911 470.692 348.95 460.25 340.24 455.975C334.864 452.866 329.23 450.181 323.846 447.063C318.781 444.13 313.885 440.526 308.589 438.052L306.492 437.103C290.879 428.546 270.825 411.462 259.402 397.689C255.829 393.381 252.927 388.701 249.997 383.951C274.767 368.774 308.245 344.881 324.603 320.893C341.562 296.024 336.691 270.742 331.584 243.232C328.972 247.078 326.625 251.108 323.944 254.902C308.038 277.418 285.669 291.323 258.148 294.245C251.013 295.003 243.436 293.45 236.453 294.743C234.271 295.147 232.22 295.878 230.467 297.269C224.198 302.246 216.194 315.247 211.469 322.078C204.923 315.253 194.994 303.228 186.824 298.902C184.841 297.852 181.884 297.869 179.71 298.113C175.633 298.57 171.68 300.179 167.62 300.879C154.279 303.177 137.992 303.855 124.944 300.059C128.766 297.593 133.043 295.527 136.981 293.218C149.948 285.615 162.974 278.291 176.144 271.047C191.483 262.61 206.61 253.641 221.853 245.009C227.24 241.959 232.225 238.234 237.607 235.167L378.522 153.929L478.092 96.28C487.504 90.9467 501.295 81.3603 510.904 77.6589Z" />
	<path fill="#2C83AF"
		d="M510.904 77.6589C512.964 77.9096 514.833 78.228 516.699 79.1782C523.744 82.7661 530.524 87.1067 537.399 91.0228L577.692 113.903L691.15 178.968L856.442 274.018C870.043 281.852 883.932 289.184 897.454 297.151C888.033 301.443 879.319 308.308 870.466 313.724L800.466 355.859C786.702 364.309 773.187 373.968 759.016 381.633C757.004 382.721 755.323 383.274 753.053 383.409C750.631 385.212 748.297 386.384 745.484 387.455L745.56 419.198C745.568 423.995 746.129 429.61 745.337 434.286L743.456 434.444C720.586 434.365 698.469 436.353 675.917 440.154C671.104 441.226 666.09 442.623 661.204 443.171L659.567 444.081C652.961 443.922 637.664 450.037 630.309 451.879L628.077 452.845C620.035 454.854 608.927 457.338 601.48 460.507L598.974 461.268C591.51 462.857 580.899 465.35 574.067 468.532L571.87 469.329C561.859 472.046 551.097 475.373 541.549 479.372L541.45 370.865C537.6 368.267 534.01 365.071 530.365 362.186C523.343 356.677 516.362 351.114 509.424 345.5C509.212 333.348 509.37 321.166 509.369 309.011C510.779 308.532 512.209 308.056 513.551 307.406C517.318 305.582 520.442 302.308 521.761 298.3C522.941 294.671 522.573 290.717 520.743 287.369C518.44 283.169 514.943 280.995 510.494 279.614L510.54 210.255C511.787 209.906 513.083 209.571 514.293 209.1C518.241 207.547 521.377 204.436 522.962 200.5C524.353 196.92 524.233 192.928 522.628 189.439C520.488 184.86 516.663 182.693 512.063 181.152C510.917 157.426 511.482 133.385 511.518 109.627C511.533 99.3989 512.674 87.7065 510.904 77.6589Z" />
	<path fill="#FEFEFE"
		d="M669.498 339.496C668.045 338.988 666.607 338.445 665.234 337.744C661.857 336.022 659.137 332.536 658.031 328.929C657.028 325.678 657.398 322.158 659.055 319.186C661.06 315.538 664.686 312.952 668.71 311.993C672.328 311.13 676.334 311.666 679.455 313.746C682.77 315.955 684.851 319.696 685.545 323.567C686.281 327.677 685.12 330.461 682.727 333.728C679.835 337.675 676.331 338.883 671.708 339.692L671.793 383.1C680.602 376.995 692.894 368.988 700.264 361.455C699.274 360.784 698.274 360.103 697.381 359.305C694.545 356.771 692.692 352.874 692.672 349.057C692.647 344.463 695.104 340.253 698.438 337.227C701.066 334.843 704.211 333.433 707.805 333.771C711.64 334.132 715.135 336.271 717.471 339.289C720.157 342.756 721.28 347.184 720.571 351.512C720.026 354.937 718.508 358.157 715.602 360.17C712.014 362.656 707.152 363.22 702.964 362.417C694.345 371.078 678.111 381.475 667.727 389.227C656.304 397.756 642.002 409.81 630.297 417.103L630.309 451.879L628.077 452.845C627.711 440.5 627.995 428.067 627.99 415.712C633.374 412.318 638.344 408.217 643.459 404.43C652.222 398.065 660.928 391.621 669.574 385.098L669.498 339.496Z" />
	<path fill="#2C83AF"
		d="M704.496 336.937C710.918 335.616 717.193 339.758 718.504 346.182C719.814 352.606 715.662 358.874 709.236 360.174C702.824 361.47 696.574 357.33 695.267 350.921C693.96 344.512 698.09 338.255 704.496 336.937Z" />
	<path fill="#2C83AF"
		d="M669.407 314.187C675.704 312.923 681.824 317.039 683.028 323.348C684.231 329.658 680.057 335.738 673.736 336.881C667.5 338.009 661.52 333.903 660.333 327.678C659.145 321.454 663.194 315.434 669.407 314.187Z" />
	<path fill="#FEFEFE"
		d="M741.96 348.777C740.631 348.391 739.268 347.951 738.008 347.377C734.779 345.906 732.026 342.971 730.756 339.666C729.415 336.172 729.442 331.659 730.985 328.23C732.506 324.848 735.213 322.509 738.693 321.305C742.342 320.042 746.268 319.949 749.761 321.736C753.222 323.506 755.643 326.821 756.64 330.542C757.609 334.154 757.229 338.139 755.31 341.382C752.668 345.846 748.785 347.419 744.053 348.733L744.057 358.062C747.002 358.837 749.765 359.729 752.135 361.713C755.249 364.32 757.286 367.869 757.576 371.959C757.906 376.612 756.013 380.007 753.053 383.409C750.631 385.212 748.297 386.384 745.484 387.455L745.56 419.198C745.568 423.995 746.129 429.61 745.337 434.286L743.456 434.444C742.778 420.521 743.229 406.36 743.169 392.408C743.178 391.016 743.279 389.582 742.895 388.231C742.611 387.228 737.014 385.624 735.746 384.978C732.814 383.484 730.704 380.08 729.733 377.019C728.602 373.409 729.011 369.493 730.863 366.194C733.435 361.663 737.273 359.932 742.03 358.585L741.96 348.777Z" />
	<path fill="#2C83AF"
		d="M741.142 361.243C745.364 360.408 749.708 361.917 752.503 365.191C755.297 368.465 756.107 372.992 754.619 377.031C753.131 381.07 749.578 383.991 745.328 384.67C738.922 385.692 732.878 381.397 731.737 375.011C730.595 368.626 734.778 362.503 741.142 361.243Z" />
	<path fill="#2C83AF"
		d="M742.507 322.919C748.908 322.388 754.517 327.17 755.007 333.574C755.497 339.978 750.679 345.557 744.272 346.005C737.923 346.449 732.406 341.685 731.921 335.339C731.435 328.993 736.164 323.446 742.507 322.919Z" />
	<path fill="#206B9B"
		d="M743.169 392.408C743.229 406.36 742.778 420.521 743.456 434.444C720.586 434.365 698.469 436.353 675.917 440.154C680.634 433.846 702.139 425.5 708.11 418.859C708.594 418.321 708.9 418.055 709.52 417.702C711.951 417.528 714.324 416.876 716.503 415.783C721.506 413.276 723.705 409.038 725.399 403.984L725.669 401.739C727.297 398.949 739.841 393.624 743.169 392.408Z" />
	<path fill="#FEFEFE"
		d="M545.155 230.013C543.634 229.502 542.078 229.003 540.623 228.32C537.093 226.662 534.205 223.689 532.924 219.975C531.632 216.205 531.899 212.075 533.665 208.503C535.382 205.096 538.411 202.535 542.056 201.409C546.22 200.129 550.701 200.983 554.417 203.152C557.21 204.782 559.811 208.022 560.494 211.222C561.377 215.355 560.967 219.997 558.536 223.549C555.839 227.489 552.029 228.931 547.571 229.855C548.193 260.279 547.749 290.864 547.771 321.301C556.244 327.942 564.816 335.095 573.879 340.892C574.583 355.829 574.035 371.042 574.053 386.011L574.067 468.532L571.87 469.329C571.253 457.763 571.585 446.006 571.57 434.422L571.51 375.329C571.495 364.487 572.203 353.02 571.205 342.243C562.625 335.812 554.12 329.283 545.69 322.656C545.163 312.53 545.49 302.207 545.412 292.053C545.185 271.373 545.1 250.693 545.155 230.013Z" />
	<path fill="#2C83AF"
		d="M542.851 203.744C547.017 202.413 551.577 203.438 554.773 206.423C557.968 209.407 559.302 213.887 558.258 218.133C557.215 222.38 553.957 225.731 549.742 226.895C543.401 228.645 536.826 225.001 534.95 218.697C533.073 212.392 536.586 205.745 542.851 203.744Z" />
	<path fill="#FEFEFE"
		d="M633.937 315.069C632.974 314.791 632.022 314.477 631.084 314.127C627.322 312.708 623.007 309.441 621.406 305.654C620.036 302.413 620.437 298.605 621.754 295.417C623.216 291.878 626.248 288.905 629.783 287.451C633.268 286.018 637.548 286.115 640.971 287.697C644.243 289.209 646.274 292.082 647.487 295.401C648.816 299.038 648.944 302.799 647.248 306.336C644.993 311.04 640.863 313.27 636.146 314.827C636.196 328.24 635.94 341.755 636.575 355.15C624.6 363.998 613.494 373.968 601.353 382.642C601.13 408.587 601.431 434.56 601.48 460.507L598.974 461.268C598.609 451.258 598.821 441.161 598.784 431.141C598.679 414.715 598.658 398.288 598.721 381.862C608.612 372.684 623.12 363.285 634.002 354.405L633.937 315.069Z" />
	<path fill="#2C83AF"
		d="M633.001 288.941C639.341 287.952 645.289 292.27 646.314 298.604C647.34 304.938 643.057 310.911 636.729 311.974C630.349 313.045 624.315 308.719 623.281 302.333C622.247 295.946 626.608 289.938 633.001 288.941Z" />
	<path fill="#2C83AF"
		d="M696.662 403.902C697.124 406.532 697.771 409.088 699.218 411.366C701.677 415.237 705.179 416.788 709.52 417.702C708.9 418.055 708.594 418.321 708.11 418.859C702.139 425.5 680.634 433.846 675.917 440.154C671.104 441.226 666.09 442.623 661.204 443.171C661.399 438.112 661.303 432.993 661.343 427.927C673.214 420.123 685.272 412.395 696.662 403.902Z" />
	<path fill="#FEFEFE"
		d="M697.04 400.984C697.542 399.057 698.122 397.128 699.199 395.432C701.291 392.138 704.65 389.582 708.503 388.796C712.202 388.044 716.047 388.893 719.086 391.133C723.551 394.431 724.759 398.781 725.399 403.984C723.705 409.038 721.506 413.276 716.503 415.783C714.324 416.876 711.951 417.528 709.52 417.702C705.179 416.788 701.677 415.237 699.218 411.366C697.771 409.088 697.124 406.532 696.662 403.902C685.272 412.395 673.214 420.123 661.343 427.927C661.303 432.993 661.399 438.112 661.204 443.171L659.567 444.081C657.718 440.241 658.892 431.574 658.996 427.144C663.785 422.361 670.685 418.79 676.378 415.055C683.321 410.447 690.208 405.756 697.04 400.984Z" />
	<path fill="#2C83AF"
		d="M703.567 412.661C701.446 410.491 699.902 407.557 699.402 404.552C698.902 401.546 699.843 398.34 701.663 395.932C703.766 393.144 706.957 391.384 710.437 391.093C713.433 390.828 716.521 391.729 718.777 393.747C721.837 396.485 722.634 400.14 722.911 404.051C721.931 408.134 719.979 411.376 716.256 413.542C713.608 415.084 710.325 415.694 707.362 414.76C705.894 414.298 704.79 413.571 703.567 412.661Z" />
	<path fill="#206B9B"
		d="M703.567 412.661C705.358 410.464 719.847 404.667 722.911 404.051C721.931 408.134 719.979 411.376 716.256 413.542C713.608 415.084 710.325 415.694 707.362 414.76C705.894 414.298 704.79 413.571 703.567 412.661Z" />
	<path fill="#FEFEFE"
		d="M471.511 230.333C466.981 229.748 463.168 228.366 460.339 224.55C458.082 221.505 457.19 217.501 457.804 213.773C458.459 209.85 460.658 206.353 463.908 204.061C467.093 201.811 471.058 200.957 474.886 201.697C478.727 202.418 482.182 204.431 484.281 207.784C486.461 211.268 487.186 216.366 486.165 220.338C485.264 223.846 482.966 226.666 479.86 228.491C478.005 229.58 475.969 230.057 473.862 230.361C473.873 235.143 473.949 239.935 473.816 244.715C477.392 247.222 480.209 250.329 480.928 254.796C481.525 258.646 480.469 262.569 478.021 265.599C475.12 269.244 471.595 270.809 467.217 271.972C467.407 287.062 467.047 302.21 467.503 317.285C470.366 319.991 473.354 322.426 476.465 324.84C477.75 380.679 476.9 436.648 476.915 492.505L474.276 492.424L474.387 379.155L474.408 345.768C474.407 339.429 474.859 332.587 473.978 326.311C471.144 323.647 468.176 321.119 465.364 318.439C464.227 303.044 464.739 287.225 464.764 271.772C460.131 270.346 456.331 268.391 453.999 263.873C452.085 260.164 451.897 255.663 453.348 251.764C454.684 248.114 457.508 245.204 461.116 243.76C464.618 242.354 467.961 242.399 471.54 243.424L471.511 230.333Z" />
	<path fill="#3897B5"
		d="M469.62 204.168C476.174 202.766 482.626 206.937 484.04 213.489C485.453 220.041 481.294 226.501 474.745 227.926C468.178 229.355 461.699 225.183 460.282 218.614C458.864 212.045 463.048 205.573 469.62 204.168Z" />
	<path fill="#3897B5"
		d="M463.422 245.747C469.765 243.997 476.324 247.726 478.064 254.072C479.803 260.418 476.062 266.971 469.713 268.699C463.38 270.423 456.847 266.693 455.112 260.363C453.377 254.033 457.095 247.493 463.422 245.747Z" />
	<path fill="#FEFEFE"
		d="M512.063 181.152C516.663 182.693 520.488 184.86 522.628 189.439C524.233 192.928 524.353 196.92 522.962 200.5C521.377 204.436 518.241 207.547 514.293 209.1C513.083 209.571 511.787 209.906 510.54 210.255L510.494 279.614C514.943 280.995 518.44 283.169 520.743 287.369C522.573 290.717 522.941 294.671 521.761 298.3C520.442 302.308 517.318 305.582 513.551 307.406C512.209 308.056 510.779 308.532 509.369 309.011C509.37 321.166 509.212 333.348 509.424 345.5C516.362 351.114 523.343 356.677 530.365 362.186C534.01 365.071 537.6 368.267 541.45 370.865L541.549 479.372L538.958 480.342C538.248 467.871 538.729 455.095 538.705 442.593L538.605 372.303C528.508 363.249 516.89 355.826 506.88 346.721C506.541 334.094 506.772 321.41 506.796 308.777C504.568 308.25 502.502 307.608 500.609 306.272C497.295 303.971 495.069 300.411 494.454 296.424C493.853 292.482 494.733 288.54 497.163 285.349C500.034 281.578 503.837 280.236 508.34 279.635L508.116 209.668C505.847 208.722 503.636 207.714 501.776 206.068C498.602 203.261 496.579 199.31 496.479 195.05C496.395 191.493 497.62 187.935 500.102 185.356C503.295 182.036 507.636 181.175 512.063 181.152Z" />
	<path fill="#3897B5"
		d="M512.54 305.21C507.729 307.044 502.284 305.569 499.056 301.558C495.827 297.547 495.551 291.913 498.37 287.605C501.19 283.297 506.464 281.296 511.432 282.649C516.393 284.001 519.922 288.392 520.174 293.528C520.426 298.664 517.345 303.379 512.54 305.21Z" />
	<path fill="#2C83AF"
		d="M511.432 282.649C516.393 284.001 519.922 288.392 520.174 293.528C520.426 298.664 517.345 303.379 512.54 305.21C511.154 303.347 511.946 286.732 511.432 282.649Z" />
	<path fill="#3897B5"
		d="M511.841 207.375C508.405 207.227 505.394 206.323 502.765 204.012C500.415 201.955 498.998 199.033 498.838 195.914C498.653 192.885 499.624 189.83 501.665 187.565C504.635 184.268 507.89 183.725 512.08 183.456C515.847 184.878 518.692 186.741 520.383 190.535C521.682 193.467 521.778 196.791 520.65 199.792C519.519 202.825 517.187 205.258 514.204 206.516C513.429 206.835 512.635 207.106 511.841 207.375Z" />
	<path fill="#2C83AF"
		d="M512.08 183.456C515.847 184.878 518.692 186.741 520.383 190.535C521.682 193.467 521.778 196.791 520.65 199.792C519.519 202.825 517.187 205.258 514.204 206.516C513.429 206.835 512.635 207.106 511.841 207.375C510.864 200.421 511.998 190.729 512.08 183.456Z" />
	<path fill="#3897B5"
		d="M341.362 426.484C346.039 426.05 350.176 425.289 353.344 421.408C355.692 418.529 356.518 415.374 357.238 411.834C364.235 416.935 371.068 422.257 377.726 427.793C377.735 442.732 377.329 457.807 377.78 472.729C368.911 470.692 348.95 460.25 340.24 455.975L340.634 455.366C342.438 453.148 341.401 430.874 341.362 426.484Z" />
	<path fill="#FEFEFE"
		d="M383.574 304.809C379.647 303.96 375.729 302.615 373.344 299.139C370.93 295.623 369.844 291.107 370.87 286.931C371.8 283.141 374.39 279.945 377.76 278.023C381.209 276.042 385.304 275.511 389.144 276.548C392.763 277.513 395.8 279.973 397.495 283.312C399.424 287.104 399.884 291.459 398.465 295.496C397.262 298.918 394.498 301.949 391.145 303.371C389.518 304.061 387.681 304.411 385.962 304.804L385.852 346.664L424.666 377.846C431.254 383.158 437.918 389.369 445.032 393.914L444.988 490.212L442.443 489.92L442.446 395.535C423.66 378.741 403.173 363.484 383.516 347.702L383.574 304.809Z" />
	<path fill="#3897B5"
		d="M382.129 278.877C388.551 277.318 395.019 281.268 396.564 287.694C398.109 294.119 394.144 300.578 387.715 302.108C381.307 303.634 374.872 299.685 373.332 293.279C371.792 286.874 375.728 280.431 382.129 278.877Z" />
	<path fill="#FEFEFE"
		d="M346.72 335.946C341.84 333.963 337.062 331.548 334.905 326.367C333.664 323.388 333.898 320.221 335.158 317.288C336.852 313.349 340.222 310.079 344.261 308.611C347.905 307.286 352.347 307.41 355.86 309.093C359.037 310.616 361.058 313.466 362.042 316.795C363.257 320.904 363.059 325.611 360.78 329.324C358.905 332.381 355.555 334.748 352.023 335.415C351.283 335.555 350.538 335.636 349.791 335.727L349.031 335.824C349.065 345.645 348.772 355.582 349.182 365.388C359.536 375.093 371.151 383.843 382.191 392.756C392.453 401.04 402.536 409.769 413.03 417.735C413.029 424.714 413.554 482.363 412.225 483.756L412.299 483.122L411.784 483.754L410.532 483.338L410.524 418.909C398.793 408.758 386.565 399.024 374.408 389.382C366.097 382.791 353.107 373.722 346.845 365.808C346.31 355.908 346.61 345.86 346.72 335.946Z" />
	<path fill="#3897B5"
		d="M346.508 310.203C352.843 308.993 358.967 313.122 360.22 319.449C361.473 325.776 357.386 331.928 351.068 333.225C344.688 334.534 338.463 330.398 337.198 324.009C335.933 317.621 340.111 311.424 346.508 310.203Z" />
	<path fill="#FEFEFE"
		d="M340.646 426.372C336.399 425.168 332.755 423.121 330.496 419.178C328.542 415.765 328.189 411.803 329.375 408.067C330.536 404.407 333.153 401.188 336.663 399.562C340.569 397.752 344.922 398.237 348.824 399.803C353.879 401.832 354.515 406.001 358.074 409.381C363.174 414.225 374.025 422.353 379.986 426.317C380.049 441.961 380.793 457.986 379.918 473.6L377.78 472.729C377.329 457.807 377.735 442.732 377.726 427.793C371.068 422.257 364.235 416.935 357.238 411.834C356.518 415.374 355.692 418.529 353.344 421.408C350.176 425.289 346.039 426.05 341.362 426.484C341.401 430.874 342.438 453.148 340.634 455.366L340.646 426.372Z" />
	<path fill="#3897B5"
		d="M339.66 401.145C343.676 400.002 347.996 401.106 350.972 404.035C353.948 406.964 355.12 411.266 354.042 415.3C352.963 419.333 349.801 422.476 345.76 423.53C339.609 425.133 333.313 421.487 331.641 415.354C329.97 409.22 333.545 402.884 339.66 401.145Z" />
	<path fill="#FEFEFE"
		d="M506.47 406.663C505.242 406.334 503.92 406.021 502.743 405.527C499.248 404.06 495.913 400.813 494.498 397.284C493.183 394.006 493.408 390.229 494.845 387.027C496.525 383.283 499.647 380.726 503.472 379.366C506.829 378.173 510.432 378.247 513.622 379.903C517.07 381.692 519.677 385.073 520.744 388.785C521.82 392.431 521.337 396.361 519.411 399.639C516.987 403.711 513.353 405.42 508.949 406.583L509.244 488.316L506.734 489.053C506.303 479.223 506.561 469.254 506.544 459.411L506.47 406.663Z" />
	<path fill="#2C83AF"
		d="M506.218 381.231C512.312 380.442 517.925 384.652 518.872 390.724C519.819 396.795 515.755 402.515 509.71 403.619C505.658 404.358 501.524 402.842 498.912 399.657C496.301 396.473 495.622 392.122 497.14 388.293C498.658 384.464 502.134 381.761 506.218 381.231Z" />
	<path fill="#FEFEFE"
		d="M306.374 379.121C301.983 377.271 298.51 374.404 296.732 369.854C295.32 366.241 295.608 362.301 297.287 358.833C298.96 355.379 301.699 352.34 305.39 351.057C309.116 349.762 313.439 350.364 316.912 352.124C320.727 354.014 323.572 357.419 324.753 361.509C325.773 365.069 325.602 369.368 323.641 372.59C321.606 375.934 317.343 378.226 313.622 379.116C312.027 379.497 310.281 379.536 308.645 379.612L308.589 438.052L306.492 437.103L306.374 379.121Z" />
	<path fill="#3897B5"
		d="M308.238 353.213C314.885 351.908 321.323 356.268 322.578 362.925C323.832 369.583 319.423 375.987 312.756 377.19C306.161 378.381 299.841 374.029 298.6 367.444C297.359 360.858 301.662 354.505 308.238 353.213Z" />
	<path fill="#FEFEFE"
		d="M418.533 251.627C422.313 251.289 425.609 251.307 429.103 253.067C432.635 254.827 435.277 257.974 436.4 261.757C437.507 265.448 437.044 269.432 435.122 272.772C432.485 277.3 428.383 279.09 423.533 280.248L423.454 326.625C423.416 327.674 423.387 328.222 422.801 329.108L422.236 328.88C419.88 324.153 421.079 288.388 421.081 280.426C419.713 280.066 418.318 279.696 416.999 279.183C413.595 277.856 410.715 274.833 409.275 271.506C407.716 267.943 407.641 263.906 409.067 260.288C410.838 255.825 414.335 253.476 418.533 251.627Z" />
	<path fill="#3897B5"
		d="M418.625 254.433C422.732 253.011 427.287 253.936 430.515 256.845C433.743 259.754 435.134 264.189 434.146 268.421C433.158 272.653 429.947 276.013 425.764 277.192C419.552 278.942 413.075 275.436 411.143 269.279C409.212 263.121 412.527 256.544 418.625 254.433Z" />
	<path fill="#FEFEFE"
		d="M440.896 334.343C445.77 333.587 450.673 335.513 453.73 339.383C456.788 343.253 457.526 348.469 455.662 353.035C453.799 357.602 449.622 360.812 444.73 361.438C437.304 362.388 430.493 357.195 429.444 349.782C428.395 342.37 433.498 335.49 440.896 334.343Z" />
	<path fill="#3897B5"
		d="M440.576 336.903C444.536 335.998 448.677 337.299 451.407 340.306C454.138 343.314 455.034 347.56 453.752 351.414C452.469 355.269 449.208 358.132 445.22 358.904C439.195 360.071 433.347 356.191 432.08 350.187C430.813 344.182 434.594 338.271 440.576 336.903Z" />
	<path fill="#2C83AF"
		d="M307.351 622.091C339.511 654.343 371.864 681.898 416.192 695.436C385.274 715.422 351.702 729.496 316.589 740.33C350.095 762.111 383.228 774.429 423.854 773.3C424.758 771.455 425.902 769.714 427.336 768.234C430.096 765.385 433.714 763.429 437.75 763.434C442.56 763.44 445.728 765.807 448.94 769.051C457.239 766.382 465.024 762.16 473.33 759.56L475.428 758.524C480.25 758.016 505.144 744.942 509.996 741.951C509.966 765.877 510.057 789.803 510.269 813.728C505.785 815.03 502.451 816.77 500.094 821.015C497.859 825.038 497.555 830.301 499.005 834.638C500.192 838.187 502.654 841.153 506.043 842.796C508.301 843.891 510.652 844.059 513.118 844.182C512.273 844.748 512.221 844.534 511.999 845.622C511.466 848.241 511.689 945.179 511.857 945.804L512.955 946.446C512.313 946.441 511.682 946.392 511.05 946.27C505.959 945.288 472.698 924.812 465.308 920.523C443.083 907.889 420.932 895.126 398.856 882.234L228.541 784.417C196.663 766.204 164.94 747.722 133.375 728.973C131.108 727.6 128.864 726.406 127.389 724.127C127.913 723.315 146.067 714.414 148.825 712.839L271.915 643.066C279.002 639.017 302.491 626.587 307.351 622.091Z" />
	<path fill="#FEFEFE"
		d="M475.428 758.524C477.021 764.454 475.86 782.72 475.774 789.896C480.546 791.002 483.852 793.279 486.384 797.568C488.59 801.305 489.24 805.584 488.053 809.768C486.925 813.748 484.764 818.037 480.968 820.072C477.658 821.847 473.787 821.77 470.304 820.537C466.19 819.089 462.863 815.998 461.116 812.002C459.427 808.133 459.249 803.056 460.872 799.136C462.49 795.231 466.197 792.45 470.071 791.005C471.162 790.598 472.293 790.359 473.434 790.145L473.33 759.56L475.428 758.524Z" />
	<path fill="#2C83AF"
		d="M471.428 793.104C473.959 792.848 476.035 792.617 478.423 793.707C481.625 795.167 483.963 797.955 485.133 801.242C486.385 804.762 486.278 808.803 484.619 812.173C482.943 815.576 480.435 817.289 476.925 818.457C475.072 818.527 473.273 818.51 471.475 817.993C468.12 817.015 465.327 814.678 463.772 811.547C462.125 808.117 461.978 804.156 463.368 800.614C464.931 796.671 467.692 794.759 471.428 793.104Z" />
	<path fill="#FEFEFE"
		d="M423.854 773.3C424.758 771.455 425.902 769.714 427.336 768.234C430.096 765.385 433.714 763.429 437.75 763.434C442.56 763.44 445.728 765.807 448.94 769.051C451.516 773.719 452.831 779.133 451.355 784.403C450.284 788.227 447.704 791.452 444.208 793.336C440.798 795.19 436.789 795.61 433.069 794.503C429.25 793.356 425.968 790.861 424.104 787.307C421.702 782.725 422.304 778.02 423.854 773.3Z" />
	<path fill="#2C83AF"
		d="M427.122 772.429C427.58 771.703 428.049 770.966 428.602 770.306C430.712 767.784 434.065 766 437.359 765.817C440.858 765.623 443.547 767.001 446.078 769.284C448.943 773.479 449.719 777.78 448.818 782.794C448.263 785.887 446.817 788.798 444.164 790.599C441.418 792.464 437.715 792.967 434.519 792.176C431.121 791.328 428.214 789.136 426.465 786.103C424.518 782.722 424.577 779.24 425.703 775.573C426.034 774.495 426.48 773.36 427.122 772.429Z" />
	<path fill="#15517F"
		d="M427.122 772.429C427.58 771.703 428.049 770.966 428.602 770.306C430.712 767.784 434.065 766 437.359 765.817C440.858 765.623 443.547 767.001 446.078 769.284C441.461 770.92 431.747 773.817 427.122 772.429Z" />
	<path fill="#3897B5"
		d="M127.379 367.668C147.042 377.183 170.552 387.099 191.841 391.899C193.253 400.464 195.597 408.885 197.625 417.323C211.918 476.935 238.057 533.062 274.487 582.364C284.47 596.16 295.183 610.131 307.351 622.091C302.491 626.587 279.002 639.017 271.915 643.066L148.825 712.839C146.067 714.414 127.913 723.315 127.389 724.127C128.107 712.164 127.327 699.682 127.325 687.672L127.314 610.798L127.379 367.668Z" />
	<path fill="#206B9B"
		d="M897.454 297.151C898.498 298.831 897.794 302.952 897.741 305.1C896.917 338.673 897.718 372.388 897.673 405.98L897.675 631.479L897.735 700.255C897.724 705.229 898.463 718.967 897.371 723.15C897.287 723.475 897.08 723.915 896.957 724.203C894.658 721.601 878.616 713.572 874.71 711.399L806.951 673.43C797.287 668.08 787.063 663.614 777.61 657.911C783.349 652.967 789.653 648.708 795.339 643.661C835.254 608.228 868.09 566.805 875.496 512.432C877.043 501.078 877.1 491.259 869.755 481.748C850.263 456.508 809.028 442.012 778.192 437.387C767.219 435.742 756.287 435.617 745.337 434.286C746.129 429.61 745.568 423.995 745.56 419.198L745.484 387.455C748.297 386.384 750.631 385.212 753.053 383.409C755.323 383.274 757.004 382.721 759.016 381.633C773.187 373.968 786.702 364.309 800.466 355.859L870.466 313.724C879.319 308.308 888.033 301.443 897.454 297.151Z" />
	<path fill="#FEFEFE"
		d="M509.996 741.951L511.73 740.614L512.696 742.137C513.664 750.486 513.045 759.418 513.03 767.84L512.932 813.732C517.556 815.004 520.773 816.874 523.275 821.169C525.627 825.206 526.278 830.247 524.905 834.727C523.796 838.371 521.187 841.37 517.732 842.974C516.267 843.637 514.706 843.99 513.118 844.182C510.652 844.059 508.301 843.891 506.043 842.796C502.654 841.153 500.192 838.187 499.005 834.638C497.555 830.301 497.859 825.038 500.094 821.015C502.451 816.77 505.785 815.03 510.269 813.728C510.057 789.803 509.966 765.877 509.996 741.951Z" />
	<path fill="#2C83AF"
		d="M512.909 841.891C510.131 841.815 507.3 841.119 505.079 839.382C502.384 837.274 501.04 834.018 500.75 830.675C500.412 826.782 501.31 822.909 503.909 819.92C506.408 817.045 509.117 816.535 512.74 816.185C516.46 817.28 519.072 818.838 521.022 822.307C522.882 825.618 523.366 829.836 522.27 833.476C521.316 836.642 519.128 839.353 516.134 840.794C515.111 841.287 514 841.59 512.909 841.891Z" />
	<path fill="#206B9B"
		d="M512.74 816.185C516.46 817.28 519.072 818.838 521.022 822.307C522.882 825.618 523.366 829.836 522.27 833.476C521.316 836.642 519.128 839.353 516.134 840.794C515.111 841.287 514 841.59 512.909 841.891L512.306 841.336C510.822 836.591 511.878 821.399 512.74 816.185Z" />
	<path fill="#FEFEFE"
		d="M546.844 740.093L547.736 740.271L548.13 742.656C548.274 758.441 548.285 774.227 548.164 790.012C548.85 790.173 549.533 790.349 550.213 790.539C554.541 791.764 558.455 794.326 560.567 798.411C562.703 802.542 562.531 807.647 560.968 811.943C559.631 815.617 557.104 818.598 553.434 820.071C549.909 821.486 545.875 821.125 542.453 819.594C538.572 817.869 535.6 814.584 534.271 810.55C532.845 806.262 533.427 801.174 535.611 797.234C537.892 793.121 541.748 791.584 546.023 790.389C545.862 774.39 546.683 758.174 545.839 742.21L546.844 740.093Z" />
	<path fill="#206B9B"
		d="M544.171 794.022C548.341 792.703 552.898 793.732 556.096 796.715C559.294 799.698 560.638 804.173 559.612 808.424C558.586 812.676 555.349 816.045 551.142 817.241C544.769 819.053 538.122 815.412 536.216 809.066C534.311 802.72 537.853 796.02 544.171 794.022Z" />
	<path fill="#FEFEFE"
		d="M583.112 736.307C583.82 736.445 584.565 736.325 584.927 737.025C586.384 739.836 585.548 756.371 585.526 760.442C590.229 761.355 593.656 762.918 596.443 767.01C598.813 770.488 599.623 775.328 598.795 779.429C598.02 783.267 595.974 787.216 592.636 789.409C589.68 791.35 585.813 791.831 582.393 791.091C578.212 790.187 574.512 787.343 572.391 783.65C570.321 780.046 569.652 775.404 570.805 771.388C571.938 767.441 575.38 763.914 579.024 762.141C580.372 761.485 581.796 760.978 583.216 760.503C583.067 753.596 582.987 746.688 582.979 739.779L583.112 736.307Z" />
	<path fill="#206B9B"
		d="M582.043 763.56C584.069 763.432 586.193 763.181 588.15 763.846C591.333 764.927 593.887 767.424 595.258 770.468C596.805 773.902 596.986 778.073 595.478 781.551C593.88 785.235 591.201 787.123 587.548 788.5C585.578 788.665 583.534 788.764 581.619 788.173C578.461 787.198 575.726 784.68 574.36 781.691C572.885 778.465 572.698 774.627 573.957 771.301C575.484 767.265 578.248 765.287 582.043 763.56Z" />
	<path fill="#01345B"
		d="M547.736 740.271C547.923 740.11 548.09 739.921 548.297 739.786C549.328 739.116 581.067 735.685 583.112 736.307L582.979 739.779C571.827 740.621 559.231 744.3 548.13 742.656L547.736 740.271Z" />
	<path fill="#01345B"
		d="M511.73 740.614C514.703 738.178 518.501 737.753 522.247 737.651C525.819 737.553 545.045 738.403 546.844 740.093L545.839 742.21C538.084 743.444 520.968 742.686 512.696 742.137L511.73 740.614Z" />
	<path fill="#FEFEFE"
		d="M323.438 275.905C324.918 283.107 323.094 292.732 320.729 299.592C308.997 333.616 263.565 363.113 232.492 378.308C234.525 382.819 236.67 387.293 239.181 391.56C258.618 424.582 295.869 447.765 329.02 464.957C374.21 488.393 438.628 509.17 490.067 505.577C510.401 504.156 528.186 497.022 547.486 491.513C565.926 486.25 584.084 480.072 602.422 474.472C663.368 455.859 731.004 438.372 794.381 455.146C817.732 461.326 849.821 474.365 862.368 495.98C846.186 502.205 830.372 509.332 814.511 516.317C803.581 521.13 792.494 525.579 781.587 530.45C774.533 533.601 767.676 537.15 760.661 540.378C727.244 555.756 694.002 571.182 661.005 587.463C652.787 591.636 644.561 595.846 636.204 599.735C621.232 606.703 606.858 612.566 593.877 623.103C593.296 619.927 592.616 616.48 591.212 613.561C588.621 608.171 584.163 604.88 578.565 603.019C563.722 598.086 543.046 601.5 528.682 606.663C520.949 609.442 513.612 613.198 506.247 616.812C493.359 616.358 481.188 614.498 468.723 611.304C459.808 609.019 451.079 606.005 442.391 602.986C361.669 574.933 294.389 519.221 244.916 450.155C233.967 434.676 223.667 418.749 214.044 402.413C209.856 395.21 206.23 387.702 201.975 380.533C176.306 374.245 149.576 365.206 127.046 351.162C101.887 335.481 89.2098 319.797 82.4856 290.822C84.6646 293.033 86.9956 295.089 89.4617 296.974C110.518 312.966 134.662 317.175 160.53 313.981C167.261 313.149 173.829 311.343 180.551 310.459L181.215 310.376C193.448 318.17 204.599 331.99 211.26 344.781C215.572 339.467 219.273 333.492 223.239 327.902C228.696 320.252 234.445 312.814 240.473 305.605C244.581 306.326 248.659 306.597 252.829 306.61C280.153 306.693 304.222 294.945 323.438 275.905Z" />
	<path fill="#15517F"
		d="M652.498 537.705C664.522 537.237 674.689 546.524 675.307 558.542C675.924 570.56 666.764 580.841 654.755 581.609C646.852 582.114 639.289 578.329 634.955 571.702C630.621 565.074 630.187 556.628 633.818 549.591C637.449 542.553 644.585 538.013 652.498 537.705Z" />
	<path fill="#FEFEFE"
		d="M651.135 543.893C659.945 542.475 668.235 548.474 669.641 557.286C671.048 566.098 665.039 574.38 656.225 575.776C647.427 577.169 639.163 571.172 637.759 562.376C636.354 553.58 642.34 545.308 651.135 543.893Z" />
	<path fill="#206B9B"
		d="M650.371 547.55C657.189 545.731 664.182 549.822 665.938 556.656C667.693 563.491 663.537 570.445 656.686 572.137C649.925 573.806 643.082 569.716 641.35 562.971C639.618 556.227 643.643 549.345 650.371 547.55Z" />
	<path fill="#FEFEFE"
		d="M826.438 520.267C838.257 514.3 850.791 510.134 862.686 504.425C861.819 511.825 860.887 519.057 859.011 526.289C849.08 564.559 825.081 598.253 796.428 624.943C792.746 628.373 789.072 632.078 785.161 635.239C784.593 635.697 784.021 636.089 783.414 636.492L782.948 636.332L782.967 635.985L781.346 634.925C779.023 637.777 776.709 640.736 774.053 643.287C768.03 649.072 760.691 654.021 753.793 658.71C715.146 684.98 664.884 706.58 619.645 718.326C605.742 721.794 591.608 724.258 577.352 725.698C561.898 727.211 546.38 727.98 530.852 728.002C534.897 724.726 545.177 713.965 548.706 712.709L550.027 710.319C553.264 706.624 556.433 702.827 559.932 699.377C560.429 698.673 560.998 698.05 561.563 697.399C564.123 693.98 570.1 683.803 573.686 682.2L574.304 680.251C577.428 675.634 580.537 667.469 584.135 663.945L585.215 661.75C585.275 661.465 585.321 661.176 585.397 660.895C586.201 657.91 589.333 648.472 591.231 646.238C591.532 645.884 592.591 645.438 593.032 645.178C592.259 644.509 592.05 644.363 591.683 643.371C597.68 633.131 608.401 626.443 615.081 616.846C620.334 615.224 636.175 606.484 639.531 606.528L640.72 608.696L642.688 606.32C647.964 599.917 672.685 590.2 681.427 585.843L682.056 585.976L682.957 587.811C683.303 586.836 683.672 585.539 684.398 584.78C687.994 581.021 714.447 570.021 721.265 566.591C721.939 565.843 722.813 565.775 723.762 565.491C734.464 559.945 745.375 554.813 756.472 550.108C757.174 549.98 757.958 549.488 758.611 549.183C761.677 546.324 786.864 536.948 792.978 534.422L794.274 533.568C804.224 530.496 814.455 523.379 824.459 521.188C825.15 520.978 825.794 520.59 826.438 520.267Z" />
	<path fill="#FEFEFE"
		d="M826.438 520.267C838.257 514.3 850.791 510.134 862.686 504.425C861.819 511.825 860.887 519.057 859.011 526.289C849.08 564.559 825.081 598.253 796.428 624.943C792.746 628.373 789.072 632.078 785.161 635.239C784.593 635.697 784.021 636.089 783.414 636.492L782.948 636.332L782.967 635.985L781.346 634.925C779.023 637.777 776.709 640.736 774.053 643.287C768.03 649.072 760.691 654.021 753.793 658.71C715.146 684.98 664.884 706.58 619.645 718.326C605.742 721.794 591.608 724.258 577.352 725.698C561.898 727.211 546.38 727.98 530.852 728.002C534.897 724.726 545.177 713.965 548.706 712.709L550.027 710.319C552.537 710.394 554.94 710.304 557.442 710.114L561.234 709.874C565.298 709.388 569.371 708.983 573.451 708.659C575.62 708.305 577.781 708.13 579.969 707.963C587.244 706.209 595.379 706.009 602.852 704.769C613.001 703.095 623.081 701.025 633.069 698.564C649.075 694.604 664.227 688.869 679.423 682.562C685.868 678.624 693.654 676.148 700.375 672.517C721.223 661.254 738.663 646.919 754.812 629.733C776.152 605.993 786.189 581.062 791.369 549.988L792.978 534.422L794.274 533.568C804.224 530.496 814.455 523.379 824.459 521.188C825.15 520.978 825.794 520.59 826.438 520.267Z" />
	<path fill="#FEFEFE"
		d="M826.438 520.267C838.257 514.3 850.791 510.134 862.686 504.425C861.819 511.825 860.887 519.057 859.011 526.289C849.08 564.559 825.081 598.253 796.428 624.943C792.746 628.373 789.072 632.078 785.161 635.239C784.593 635.697 784.021 636.089 783.414 636.492L782.948 636.332L782.967 635.985L781.346 634.925C809.175 603.58 824.518 563.104 824.459 521.188C825.15 520.978 825.794 520.59 826.438 520.267Z" />
	<path fill="#206B9B"
		d="M824.459 521.188C825.15 520.978 825.794 520.59 826.438 520.267C826.721 554.559 816.722 588.15 797.731 616.706C793.215 623.518 787.585 629.348 782.967 635.985L781.346 634.925C809.175 603.58 824.518 563.104 824.459 521.188Z" />
	<path fill="#206B9B"
		d="M792.978 534.422L794.274 533.568C794.096 539.413 793.995 545.364 793.081 551.148C788.59 579.751 777.427 610.908 756.154 631.467C735.915 654.519 709.281 672.431 681.081 684.253C665.769 690.68 650.575 696.369 634.459 700.45C625.015 702.788 615.485 704.759 605.889 706.36L602.852 704.769C613.001 703.095 623.081 701.025 633.069 698.564C649.075 694.604 664.227 688.869 679.423 682.562C685.868 678.624 693.654 676.148 700.375 672.517C721.223 661.254 738.663 646.919 754.812 629.733C776.152 605.993 786.189 581.062 791.369 549.988L792.978 534.422Z" />
	<path fill="#15517F"
		d="M579.969 707.963C587.244 706.209 595.379 706.009 602.852 704.769L605.889 706.36C599.065 707.667 591.31 709.497 584.373 709.435C582.441 709.695 580.492 710.031 578.542 710.077C574.404 710.655 569.144 711.732 564.993 711.453C563.199 711.676 561.402 711.954 559.596 712.039C555.96 712.366 552.357 712.646 548.706 712.709L550.027 710.319C552.537 710.394 554.94 710.304 557.442 710.114L561.234 709.874C565.298 709.388 569.371 708.983 573.451 708.659C575.62 708.305 577.781 708.13 579.969 707.963Z" />
	<path fill="#FEFEFE"
		d="M721.265 566.591C717.354 596.383 698.188 621.508 675 639.386C657.269 653.056 635.958 663.374 614.8 670.487C608.967 672.49 603.043 674.111 597.062 675.609L592.98 676.511C587.054 677.793 580.332 679.911 574.304 680.251C577.428 675.634 580.537 667.469 584.135 663.945L585.215 661.75C585.275 661.465 585.321 661.176 585.397 660.895C586.201 657.91 589.333 648.472 591.231 646.238C591.532 645.884 592.591 645.438 593.032 645.178C592.259 644.509 592.05 644.363 591.683 643.371C597.68 633.131 608.401 626.443 615.081 616.846C620.334 615.224 636.175 606.484 639.531 606.528L640.72 608.696L642.688 606.32C647.964 599.917 672.685 590.2 681.427 585.843L682.056 585.976L682.957 587.811C683.303 586.836 683.672 585.539 684.398 584.78C687.994 581.021 714.447 570.021 721.265 566.591Z" />
	<path fill="#FEFEFE"
		d="M681.427 585.843C672.858 607.293 658.652 624.182 639.551 637.083C626.04 646.169 611.376 653.407 595.947 658.605C592.428 659.909 588.919 661.086 585.215 661.75C585.275 661.465 585.321 661.176 585.397 660.895C586.201 657.91 589.333 648.472 591.231 646.238C591.532 645.884 592.591 645.438 593.032 645.178C592.259 644.509 592.05 644.363 591.683 643.371C597.68 633.131 608.401 626.443 615.081 616.846C620.334 615.224 636.175 606.484 639.531 606.528L640.72 608.696L642.688 606.32C647.964 599.917 672.685 590.2 681.427 585.843Z" />
	<path fill="#FEFEFE"
		d="M615.081 616.846C620.334 615.224 636.175 606.484 639.531 606.528L640.72 608.696C632.495 621.853 614.796 633.932 601.362 641.197C598.83 642.567 595.812 644.447 593.032 645.178C592.259 644.509 592.05 644.363 591.683 643.371C597.68 633.131 608.401 626.443 615.081 616.846Z" />
	<path fill="#206B9B"
		d="M639.531 606.528L640.72 608.696C632.495 621.853 614.796 633.932 601.362 641.197C598.83 642.567 595.812 644.447 593.032 645.178C592.259 644.509 592.05 644.363 591.683 643.371C592.009 643.326 592.341 643.314 592.66 643.236C594.379 642.813 596.693 641.164 598.279 640.304C608.836 634.576 634.673 617.299 639.531 606.528Z" />
	<path fill="#206B9B"
		d="M681.427 585.843L682.056 585.976L682.957 587.811C675.169 605.381 664.737 620.731 649.484 632.704C646.949 634.695 643.867 637.31 640.963 638.698C627.468 648.383 613.355 654.683 597.94 660.46C593.384 661.801 588.848 663.272 584.135 663.945L585.215 661.75C588.919 661.086 592.428 659.909 595.947 658.605C611.376 653.407 626.04 646.169 639.551 637.083C658.652 624.182 672.858 607.293 681.427 585.843Z" />
	<path fill="#FEFEFE"
		d="M756.472 550.108L756.888 551.955C754.809 576.469 748.833 593.431 734.811 613.854C718.073 635.352 698.597 651.384 674.844 664.631C646.454 679.583 615.961 689.041 584.385 694.692L575.575 696.008C574.023 696.181 572.468 696.335 570.925 696.571C567.838 696.856 564.655 697.32 561.563 697.399C564.123 693.98 570.1 683.803 573.686 682.2L574.304 680.251C580.332 679.911 587.054 677.793 592.98 676.511L597.062 675.609C603.043 674.111 608.967 672.49 614.8 670.487C635.958 663.374 657.269 653.056 675 639.386C698.188 621.508 717.354 596.383 721.265 566.591C721.939 565.843 722.813 565.775 723.762 565.491C734.464 559.945 745.375 554.813 756.472 550.108Z" />
	<path fill="#206B9B"
		d="M721.265 566.591C721.939 565.843 722.813 565.775 723.762 565.491C716.002 602.911 697.676 627.568 665.987 648.351C650.724 658.319 634.285 666.356 617.046 672.28C610.76 674.205 604.441 676.252 598.003 677.6L593.918 678.612C587.45 679.921 580.257 681.989 573.686 682.2L574.304 680.251C580.332 679.911 587.054 677.793 592.98 676.511L597.062 675.609C603.043 674.111 608.967 672.49 614.8 670.487C635.958 663.374 657.269 653.056 675 639.386C698.188 621.508 717.354 596.383 721.265 566.591Z" />
	<path fill="#206B9B"
		d="M734.811 613.854C735.859 614.233 736.613 613.71 737.643 613.359C721.442 635.765 700.618 653.369 676.214 666.317C645.871 682.031 618.786 690.652 585.087 696.742L584.385 694.692C615.961 689.041 646.454 679.583 674.844 664.631C698.597 651.384 718.073 635.352 734.811 613.854Z" />
	<path fill="#15517F"
		d="M756.472 550.108C757.174 549.98 757.958 549.488 758.611 549.183L758.462 556.971C756.337 577.528 749.614 596.39 737.643 613.359C736.613 613.71 735.859 614.233 734.811 613.854C748.833 593.431 754.809 576.469 756.888 551.955L756.472 550.108Z" />
	<path fill="#15517F"
		d="M575.575 696.008L584.385 694.692L585.087 696.742C582.409 697.131 579.626 697.401 576.979 697.938L575.054 698.137C570.148 698.787 564.875 699.875 559.932 699.377C560.429 698.673 560.998 698.05 561.563 697.399C564.655 697.32 567.838 696.856 570.925 696.571C572.468 696.335 574.023 696.181 575.575 696.008Z" />
	<path fill="#FEFEFE"
		d="M430.1 685.609C379.238 671.032 348.561 645.507 312.767 607.967C273.296 566.571 238.803 506.027 221.73 451.654C220.09 446.432 215.198 434.791 215.311 429.909L216.271 431.117C219.334 432.406 220.069 436.521 222.239 438.75C226.119 443.133 228.984 449.098 232.194 454.031C236.035 459.933 240.321 465.515 244.209 471.375C248.189 477.373 251.674 483.721 255.726 489.668C257.441 489.013 257.535 488.714 259.298 489.449C259.924 490.291 260.683 491.048 260.87 492.095C274.673 507.617 289.186 522.494 304.363 536.677C305.719 535.906 306.039 535.536 307.63 535.672C308.246 536.333 308.9 536.968 309.416 537.71C318.559 545.314 327.628 553.064 337.306 559.99C379.126 589.913 439.012 618.558 490.218 626.659C486.183 630.385 481.675 633.577 477.65 637.284C476.729 638.248 476.15 639.082 474.85 639.501L458.677 654.155L457.205 655.882C454.657 659.07 447.489 669.071 444.196 670.486L442.711 672.34C438.847 677.074 434.632 681.51 430.1 685.609Z" />
	<path fill="#FEFEFE"
		d="M260.87 492.095C274.673 507.617 289.186 522.494 304.363 536.677C305.719 535.906 306.039 535.536 307.63 535.672C308.246 536.333 308.9 536.968 309.416 537.71C318.559 545.314 327.628 553.064 337.306 559.99C379.126 589.913 439.012 618.558 490.218 626.659C486.183 630.385 481.675 633.577 477.65 637.284C476.729 638.248 476.15 639.082 474.85 639.501L458.677 654.155C450.51 651.2 442.125 649.014 434.026 645.792C407.001 635.043 380.426 619.058 357.775 600.872C352.748 596.933 347.879 592.797 343.177 588.476L331.175 577.042C319.874 566.233 309.081 554.905 298.831 543.094C296.479 540.382 294.187 537.617 291.958 534.803L263.477 496.769C262.466 495.251 261.66 493.737 260.87 492.095Z" />
	<path fill="#FEFEFE"
		d="M309.416 537.71C318.559 545.314 327.628 553.064 337.306 559.99C379.126 589.913 439.012 618.558 490.218 626.659C486.183 630.385 481.675 633.577 477.65 637.284C446.673 632.455 418.295 618.119 391.43 602.665C388.135 600.007 383.937 597.859 380.321 595.586C374.797 592.09 369.33 588.504 363.922 584.831C353.854 577.069 343.888 569.177 334.026 561.154C332.397 559.429 330.277 557.84 328.484 556.266C325.233 553.275 321.937 550.333 318.597 547.441C317.814 546.002 316.086 544.689 314.905 543.538C312.978 541.654 311.154 539.774 309.416 537.71Z" />
	<path fill="#206B9B"
		d="M391.43 602.665C418.295 618.119 446.673 632.455 477.65 637.284C476.729 638.248 476.15 639.082 474.85 639.501C467.166 637.223 459.306 635.631 451.641 633.222C429.74 626.34 409.527 616.208 390.011 604.22C390.482 603.292 390.604 603.213 391.43 602.665Z" />
	<path fill="#206B9B"
		d="M318.597 547.441C321.937 550.333 325.233 553.275 328.484 556.266C330.277 557.84 332.397 559.429 334.026 561.154C343.888 569.177 353.854 577.069 363.922 584.831L362.456 586.378C353.334 579.606 344.144 572.655 335.499 565.284C332.583 563.137 329.846 560.6 327.071 558.264C324.244 555.762 321.487 553.245 318.847 550.546L320.006 550.179C319.584 549.514 319.242 548.893 318.916 548.171C318.807 547.929 318.703 547.684 318.597 547.441Z" />
	<path fill="#15517F"
		d="M363.922 584.831C369.33 588.504 374.797 592.09 380.321 595.586C383.937 597.859 388.135 600.007 391.43 602.665C390.604 603.213 390.482 603.292 390.011 604.22C383.905 601.973 368.075 590.653 362.456 586.378L363.922 584.831Z" />
	<path fill="#15517F"
		d="M304.363 536.677C305.719 535.906 306.039 535.536 307.63 535.672C308.246 536.333 308.9 536.968 309.416 537.71C311.154 539.774 312.978 541.654 314.905 543.538C316.086 544.689 317.814 546.002 318.597 547.441C318.703 547.684 318.807 547.929 318.916 548.171C319.242 548.893 319.584 549.514 320.006 550.179L318.847 550.546L313.963 545.955L304.363 536.677Z" />
	<path fill="#FEFEFE"
		d="M430.1 685.609C379.238 671.032 348.561 645.507 312.767 607.967C273.296 566.571 238.803 506.027 221.73 451.654C220.09 446.432 215.198 434.791 215.311 429.909L216.271 431.117C219.334 432.406 220.069 436.521 222.239 438.75C223.564 442.657 225.649 446.12 227.196 449.909C228.847 452.442 248.868 492.669 249.209 493.985C257.509 507.591 265.039 521.65 273.827 534.976C281.341 546.37 290.253 557.335 298.891 567.895C304.987 574.621 310.683 581.808 316.991 588.326L315.389 589.851C318.556 593.405 321.813 596.878 325.154 600.268C331.553 606.691 338.038 612.938 344.997 618.758L348.331 621.513C368.51 638.509 400.082 658.436 425.163 666.713C430.906 668.958 436.781 670.667 442.711 672.34C438.847 677.074 434.632 681.51 430.1 685.609Z" />
	<path fill="#206B9B"
		d="M249.209 493.985C257.509 507.591 265.039 521.65 273.827 534.976C281.341 546.37 290.253 557.335 298.891 567.895C304.987 574.621 310.683 581.808 316.991 588.326L315.389 589.851L296.594 568.798C284.158 553.77 272.737 537.929 262.409 521.38C260.005 517.514 257.237 513.602 255.32 509.473L255.893 509.404C257.502 510.682 258.551 513.014 259.599 514.772C258.997 510.606 249.56 499.564 249.209 493.985Z" />
	<path fill="#15517F"
		d="M224.194 449.291L224.922 447.928L225.469 447.981L226.143 449.739L226.931 450.06L227.196 449.909C228.847 452.442 248.868 492.669 249.209 493.985C249.56 499.564 258.997 510.606 259.599 514.772C258.551 513.014 257.502 510.682 255.893 509.404L255.32 509.473C247.388 497.699 241.222 483.956 235.027 471.207C231.468 463.88 227.544 456.715 224.194 449.291Z" />
	<path fill="#01345B"
		d="M216.271 431.117C219.334 432.406 220.069 436.521 222.239 438.75C223.564 442.657 225.649 446.12 227.196 449.909L226.931 450.06L226.143 449.739L225.469 447.981L224.922 447.928L224.194 449.291C221.292 443.364 218.823 437.2 216.271 431.117Z" />
	<path fill="#15517F"
		d="M357.775 600.872C380.426 619.058 407.001 635.043 434.026 645.792C442.125 649.014 450.51 651.2 458.677 654.155L457.205 655.882C419.381 646.023 385.238 626.506 355.105 601.85L357.775 600.872Z" />
	<path fill="#206B9B"
		d="M344.997 618.758L347.134 617.476L349.949 619.809C364.803 631.22 380.1 642.359 396.67 651.175C402.316 654.179 408.108 656.873 413.911 659.558C416.475 660.745 419.536 661.801 421.917 663.282C429.304 665.853 436.687 668.294 444.196 670.486L442.711 672.34C436.781 670.667 430.906 668.958 425.163 666.713C400.082 658.436 368.51 638.509 348.331 621.513L344.997 618.758Z" />
	<path fill="#206B9B"
		d="M291.958 534.803C294.187 537.617 296.479 540.382 298.831 543.094C309.081 554.905 319.874 566.233 331.175 577.042L343.177 588.476C347.879 592.797 352.748 596.933 357.775 600.872L355.105 601.85C350.442 597.952 345.838 593.985 341.294 589.949C337.796 586.554 334.217 583.238 330.674 579.89C318.991 568.738 307.808 557.075 297.155 544.935C294.595 542.249 292.338 539.189 290.01 536.296L291.958 534.803Z" />
	<path fill="#15517F"
		d="M255.726 489.668C257.441 489.013 257.535 488.714 259.298 489.449C259.924 490.291 260.683 491.048 260.87 492.095C261.66 493.737 262.466 495.251 263.477 496.769L291.958 534.803L290.01 536.296C283.822 528.502 277.745 520.621 271.782 512.655C268.365 508.116 264.528 503.492 261.77 498.523C259.657 495.656 257.726 492.617 255.726 489.668Z" />
	<path fill="#15517F"
		d="M316.991 588.326C320.425 592.061 323.904 595.755 327.427 599.405C332.234 603.795 337.014 608.213 341.769 612.659C343.424 614.188 345.722 615.776 347.134 617.476L344.997 618.758C338.038 612.938 331.553 606.691 325.154 600.268C321.813 596.878 318.556 593.405 315.389 589.851L316.991 588.326Z" />
	<path fill="#FEFEFE"
		d="M548.459 614.332C556.726 613.192 569.334 611.659 576.703 616.559L577.279 617.913L579.02 617.933C580.209 618.356 580.909 618.521 581.58 619.709C584.956 625.688 576.756 646.541 574.199 652.369C556.197 693.392 517.73 727.713 476.161 743.837C439.169 758.185 398.317 764.188 360.826 747.626C358.131 746.436 355.407 745.145 352.873 743.637C387.362 729.911 424.058 711.851 449.869 684.478C464.275 669.2 476.46 651.869 494.754 640.776C495.714 640.639 496.411 640.68 497.365 640.852C497.554 640.379 497.737 639.902 497.96 639.445C500.87 633.491 521.403 623.332 527.889 620.937C528.233 621.87 528.537 622.781 529.022 623.652C529.149 622.842 529.234 621.556 529.655 620.855C531.725 617.402 541.783 615.966 545.538 615.102L548.459 614.332Z" />
	<path fill="#FEFEFE"
		d="M579.02 617.933C580.209 618.356 580.909 618.521 581.58 619.709C584.956 625.688 576.756 646.541 574.199 652.369C556.197 693.392 517.73 727.713 476.161 743.837C439.169 758.185 398.317 764.188 360.826 747.626C358.131 746.436 355.407 745.145 352.873 743.637C387.362 729.911 424.058 711.851 449.869 684.478C464.275 669.2 476.46 651.869 494.754 640.776C495.714 640.639 496.411 640.68 497.365 640.852C493.575 650.918 489.303 660.918 483.63 670.082C465.964 698.625 436.149 722.748 405.564 736.402C405.168 736.577 404.77 736.748 404.369 736.913C402.112 737.924 399.768 739.161 397.442 739.975L396.59 741.045C401.654 740.991 406.716 740.844 411.774 740.605C415.651 740.472 419.539 740.058 423.406 739.741L427.078 739.323L432.313 738.657C469.226 732.297 491.945 722.122 522.111 699.878C547.962 677.575 568.402 651.466 577.279 617.913L579.02 617.933Z" />
	<path fill="#15517F"
		d="M522.111 699.878C522.753 700.242 523.388 700.669 524.082 700.921C498.417 721.837 467.592 735.455 434.847 740.345L430.484 740.902C428.861 741.161 427.239 741.487 425.594 741.523C421.909 742.094 418.072 742.5 414.343 742.537C406.878 742.873 399.302 743.312 391.852 742.584C390.869 742.618 389.921 742.47 388.946 742.355L388.707 741.868C390.543 740.121 393.69 739.158 396.009 738.133L397.442 739.975L396.59 741.045C401.654 740.991 406.716 740.844 411.774 740.605C415.651 740.472 419.539 740.058 423.406 739.741L427.078 739.323L432.313 738.657C469.226 732.297 491.945 722.122 522.111 699.878Z" />
	<path fill="#15517F"
		d="M494.754 640.776C495.714 640.639 496.411 640.68 497.365 640.852C493.575 650.918 489.303 660.918 483.63 670.082C465.964 698.625 436.149 722.748 405.564 736.402C405.168 736.577 404.77 736.748 404.369 736.913L402.698 736.412L403.107 734.991C413.888 729.991 424.366 724.42 434.141 717.639C457.446 701.473 477.753 680.255 489.584 654.263C491.506 650.04 493.924 645.336 494.754 640.776Z" />
	<path fill="#206B9B"
		d="M577.279 617.913L579.02 617.933C573.883 649.082 547.933 681.114 524.082 700.921C523.388 700.669 522.753 700.242 522.111 699.878C547.962 677.575 568.402 651.466 577.279 617.913Z" />
	<path fill="#206B9B"
		d="M396.009 738.133L403.107 734.991L402.698 736.412L404.369 736.913C402.112 737.924 399.768 739.161 397.442 739.975L396.009 738.133Z" />
	<path fill="#FEFEFE"
		d="M545.538 615.102C547.27 620.324 539.009 639.186 536.412 644.316C527.309 662.296 513.249 675.437 498.545 688.747L497.475 689.247C498.388 686.645 504.705 679.955 506.721 677.081C518.047 661.157 525.666 642.902 529.022 623.652C529.149 622.842 529.234 621.556 529.655 620.855C531.725 617.402 541.783 615.966 545.538 615.102Z" />
	<path fill="#15517F"
		d="M545.538 615.102L548.459 614.332C544.044 645.289 524.316 669.267 501.244 688.858C493.972 694.893 486.233 700.566 477.449 704.166C481.788 699.744 487.314 696.558 491.73 692.145C512.414 671.475 521.206 648.676 527.889 620.937C528.233 621.87 528.537 622.781 529.022 623.652C525.666 642.902 518.047 661.157 506.721 677.081C504.705 679.955 498.388 686.645 497.475 689.247L498.545 688.747C513.249 675.437 527.309 662.296 536.412 644.316C539.009 639.186 547.27 620.324 545.538 615.102Z" />
	<path fill="#FEFEFE"
		d="M623.008 729.654L624.68 730.175C625.766 731.604 625.477 733.714 625.475 735.446C627.463 736.163 629.369 736.933 631.02 738.288C634.186 740.877 636.165 744.641 636.504 748.717C636.893 752.959 635.608 757.556 632.766 760.774C629.589 764.372 625.988 765.389 621.356 765.618C619.58 765.38 617.623 764.871 615.991 764.135C612.526 762.573 610.308 759.885 609.008 756.362C607.59 752.517 606.944 747.793 608.878 744.005C611.577 738.72 616.97 737.162 622.186 735.47C623.24 734.195 622.924 731.346 623.008 729.654Z" />
	<path fill="#206B9B"
		d="M619.596 738.594C622.249 738.395 624.63 738.222 627.1 739.386C629.964 740.736 632.098 743.169 633.166 746.137C634.328 749.427 634.139 753.043 632.638 756.192C630.907 759.739 628.425 761.181 624.817 762.445C622.643 762.564 620.314 762.705 618.221 761.996C615.3 760.988 612.915 758.833 611.616 756.028C610.199 752.889 610.112 749.311 611.372 746.107C612.996 742.037 615.726 740.274 619.596 738.594Z" />
	<path fill="#206B9B"
		d="M668.67 718.998L669.202 717.208L670.156 716.855C671.696 718.519 671.502 722.927 671.433 725.197C671.295 729.65 670.537 735.108 667.144 738.312C664.506 740.803 660.208 742.102 656.634 741.865C653.09 741.629 649.971 739.915 647.669 737.24C645.18 734.347 643.479 730.599 644.156 726.685C644.261 726.074 644.556 725.571 644.848 725.036L645.534 724.683L646.117 725.135C647.881 722.668 663.942 719.314 667.741 718.18L668.67 718.998Z" />
	<path fill="#FEFEFE"
		d="M668.67 718.998L669.202 717.208L670.156 716.855C671.696 718.519 671.502 722.927 671.433 725.197C671.295 729.65 670.537 735.108 667.144 738.312C664.506 740.803 660.208 742.102 656.634 741.865C653.09 741.629 649.971 739.915 647.669 737.24C645.18 734.347 643.479 730.599 644.156 726.685C644.261 726.074 644.556 725.571 644.848 725.036L645.534 724.683L646.117 725.135C646.572 729.056 646.994 732.227 649.637 735.383C651.567 737.689 654.333 739.247 657.373 739.35C660.265 739.447 663.06 738.17 665.059 736.112C669.474 731.568 668.769 725.234 668.637 719.444L668.67 718.998Z" />
	<path fill="#01345B"
		d="M646.117 725.135C647.881 722.668 663.942 719.314 667.741 718.18L668.67 718.998L668.637 719.444C662.999 721.389 651.625 726.467 646.117 725.135Z" />
</svg>